<?xml version="1.0" encoding="utf-8"?>
<!-- Uploaded to: SVG Repo, www.svgrepo.com, Generator: SVG Repo Mixer Tools -->
<svg width="800px" height="800px" viewBox="0 0 1024 1024" class="icon"  version="1.1" xmlns="http://www.w3.org/2000/svg"><path d="M228.6 632.9c57.6-65.4 57.6-164.1-0.1-229.5-79.5 28.3-128.4 70.8-128.4 114.7 0 43.6 47.8 86.1 128.5 114.8zM491.2 705.1l0.1-3.7c-15.5 0.9-31.1 1.4-46.8 1.4-17 0-34-0.6-50.8-1.6 22.4 15.1 48.9 23.6 76.8 24.1 5.5 0.1 10.6-1.9 14.5-5.7 3.9-4 6.1-9.1 6.2-14.5zM632.4 337.8c0.4-17.5-26.1-37.6-64.9-38.6-73.3-1.9-144.1 11.9-202 38.3 25.7-2.6 52-3.9 78.9-3.9 66.4 0 130.7 8 187.5 23.4l0.5-19.2zM639.8 699.6c27.6 0 51-18.2 59-43.1-28.6 12.3-61.2 22.5-97 30.1 10.6 8.3 23.9 13 38 13z" fill="#663333" /><path d="M850.4 518.2c0-50.5 17.3-98.9 48.5-137.6-47.3 3.8-89.3 31.5-111.5 74.2-0.1 0.3-2 3.1-3 4.2-6.9 7.1-18.2 7.4-25.4 0.5-25.4-24.5-65.3-45.8-115.2-61.5-58.7-18.5-127.7-28.3-199.5-28.3-56.1 0-109.6 5.8-159.1 17.3-6.8 1.6-13.4 3.2-19.9 5 56.3 74.4 56.3 178.1 0.1 252.5 25.3 6.9 52.4 12.2 80.9 16 31.7 4.2 64.7 6.3 97.9 6.3 41.8 0 82.7-3.3 121.6-9.9 84.7-14.3 155.1-43.4 193.1-80 7.1-6.9 18.5-6.7 25.4 0.5 1 1 1.8 2.1 2.5 3.3 0.2 0.3 0.4 0.6 0.5 1 0 0.1 0.1 0.1 0.1 0.2 22.1 42.6 64.1 70.2 111.3 74-31-38.8-48.3-87.2-48.3-137.7z" fill="#663333" /><path d="M956.5 360.3c1.8 6.7-0.4 13.8-5.7 18.3-41 34.9-64.5 85.8-64.5 139.6s23.5 104.7 64.5 139.6c5.3 4.5 7.5 11.6 5.7 18.2-1.8 6.7-7.2 11.8-14 13.1-10.5 2-21.4 3-32.4 3-57.7 0-110.7-28.2-143-74.9-9 6.9-18.8 13.6-29.6 19.8v0.6c0 53.9-43.9 97.8-97.8 97.8-32.1 0-61.7-15.5-79.8-41.3-10.8 1.6-21.7 3-32.7 4.2l-0.1 7.3c-0.3 15-6.4 29.1-17.2 39.6-10.6 10.2-24.4 15.8-39.1 15.8h-1c-53.1-0.9-102-24.9-135.4-66.1-38-5.4-73.7-13.5-106.2-24.3-104.2-34.2-164-89.8-164-152.4 0-37.4 21.7-73 62.6-103 36.2-26.5 86.7-48 146.1-62.2 70.8-59.2 180.8-92.6 295.5-89.6 57.1 1.5 100.9 34.6 99.9 75.4l-0.8 29.2c39.9 13.8 73.7 31.2 99.5 51.2 32.3-46.7 85.2-74.9 143-74.9 11 0 21.9 1 32.4 3 6.9 1.3 12.3 6.3 14.1 13z" fill="#663333" /><path d="M641 466.7c3-9.4-2.3-19.5-11.7-22.5-54-17.1-118-26.1-184.9-26.1-9.9 0-18 8-18 18 0 9.9 8 18 18 18 63.3 0 123.5 8.4 174 24.4 1.8 0.6 3.6 0.8 5.4 0.8 7.7-0.1 14.7-5 17.2-12.6z" fill="#4EC8D8" /><path d="M898.9 380.6c-31.2 38.7-48.5 87.1-48.5 137.6s17.3 98.9 48.5 137.6c-47.2-3.8-89.2-31.4-111.3-74 0-0.1-0.1-0.1-0.1-0.2-0.2-0.4-0.4-0.7-0.5-1-0.7-1.1-1.5-2.2-2.5-3.3-6.9-7.1-18.2-7.4-25.4-0.5-38 36.6-108.4 65.7-193.1 80-38.9 6.6-79.8 9.9-121.6 9.9-33.3 0-66.2-2.1-97.9-6.3-28.5-3.8-55.6-9.1-80.9-16 56.2-74.4 56.2-178.1-0.1-252.5 6.5-1.7 13.1-3.4 19.9-5 49.5-11.5 103-17.3 159.1-17.3 71.8 0 140.8 9.8 199.5 28.3 49.9 15.8 89.8 37.1 115.2 61.5 7.1 6.9 18.5 6.7 25.4-0.5 1-1.1 2.9-3.9 3-4.2 22-42.6 64-70.3 111.3-74.1z" fill="#4EC8D8" /><path d="M698.7 656.5c-8 25-31.4 43.1-59 43.1-14.1 0-27.3-4.7-38-13 35.8-7.7 68.4-17.8 97-30.1z" fill="#92E4EA" /><path d="M629.3 444.2c9.4 3 14.7 13.1 11.7 22.5-2.4 7.7-9.5 12.6-17.1 12.6-1.8 0-3.6-0.3-5.4-0.8-50.6-16-110.8-24.4-174-24.4-9.9 0-18-8-18-18 0-9.9 8-18 18-18 66.8 0 130.7 9 184.8 26.1z" fill="#663333" /><path d="M567.5 299.2c38.8 1 65.4 21.2 64.9 38.6l-0.5 19.2c-56.8-15.3-121.1-23.4-187.5-23.4-26.9 0-53.3 1.3-78.9 3.9 57.9-26.3 128.7-40.2 202-38.3zM491.2 701.3l-0.1 3.7c-0.1 5.5-2.3 10.6-6.2 14.3-3.9 3.8-9.1 5.8-14.5 5.7-27.9-0.5-54.4-9-76.8-24.1 16.8 1.1 33.8 1.6 50.8 1.6 15.8 0.2 31.4-0.3 46.8-1.2z" fill="#92E4EA" /><path d="M225.7 491.2c0-11.4-9.3-20.7-20.7-20.7-11.4 0-20.7 9.3-20.7 20.7 0 11.4 9.3 20.7 20.7 20.7 11.4 0 20.7-9.2 20.7-20.7z" fill="#663333" /><path d="M228.5 403.4c57.7 65.4 57.7 164.1 0.1 229.5-80.7-28.7-128.5-71.2-128.5-114.7 0-43.9 48.9-86.5 128.4-114.8z" fill="#92E4EA" /><path d="M205 491.2m-20.7 0a20.7 20.7 0 1 0 41.4 0 20.7 20.7 0 1 0-41.4 0Z" fill="#663333" /></svg>